<?xml version="1.0" encoding="UTF-8" standalone="no"?>
<svg
   xmlns:dc="http://purl.org/dc/elements/1.1/"
   xmlns:cc="http://creativecommons.org/ns#"
   xmlns:rdf="http://www.w3.org/1999/02/22-rdf-syntax-ns#"
   xmlns:svg="http://www.w3.org/2000/svg"
   xmlns="http://www.w3.org/2000/svg"
   id="svg8"
   version="1.1"
   viewBox="0 0 400 400"
   height="400mm"
   width="400mm">
  <defs
     id="defs2">
    <filter
       id="filter969"
       style="color-interpolation-filters:sRGB;">
      <feGaussianBlur
         id="feGaussianBlur943"
         result="result0"
         in="SourceGraphic"
         stdDeviation="0.5" />
      <feTurbulence
         id="feTurbulence945"
         type="turbulence"
         baseFrequency="0.095"
         seed="488"
         numOctaves="1"
         result="result1" />
      <feComposite
         id="feComposite947"
         result="result2"
         operator="in"
         in2="result1"
         in="result0" />
      <feComposite
         id="feComposite949"
         result="result91"
         k1="3"
         k3="1"
         in2="result2"
         in="result4"
         operator="arithmetic" />
      <feBlend
         id="feBlend951"
         in2="result91"
         result="fbSourceGraphic"
         mode="multiply" />
      <feColorMatrix
         id="feColorMatrix953"
         values="0 0 0 0 0 0 0 1 0 0 0 0 1 0 0 0 0 0 5 0"
         in="fbSourceGraphic"
         result="fbSourceGraphicAlpha" />
      <feGaussianBlur
         id="feGaussianBlur955"
         stdDeviation="3"
         in="fbSourceGraphicAlpha"
         result="result0" />
      <feOffset
         id="feOffset957"
         dx="2"
         dy="2"
         in="result0"
         result="result3" />
      <feSpecularLighting
         id="feSpecularLighting961"
         in="result0"
         result="result1"
         lighting-color="rgb(111,236,253)"
         surfaceScale="2"
         specularConstant="1.1"
         specularExponent="30">
        <fePointLight
           id="fePointLight959"
           x="-5000"
           y="-10000"
           z="20000" />
      </feSpecularLighting>
      <feComposite
         id="feComposite963"
         in2="fbSourceGraphicAlpha"
         in="result1"
         result="result2"
         operator="in"
         k2="-1" />
      <feComposite
         id="feComposite965"
         in2="result2"
         in="fbSourceGraphic"
         result="result4"
         operator="arithmetic"
         k2="3"
         k3="1" />
      <feBlend
         result="fbSourceGraphic"
         id="feBlend967"
         in2="result4"
         mode="multiply" />
      <feColorMatrix
         id="feColorMatrix1799"
         values="0 0 0 -1 0 0 0 0 -1 0 0 0 0 -1 0 0 0 0 1 0"
         in="fbSourceGraphic"
         result="fbSourceGraphicAlpha" />
      <feFlood
         in="fbSourceGraphic"
         result="flood"
         flood-color="rgb(6,9,3)"
         flood-opacity="1"
         id="feFlood1801" />
      <feComposite
         result="composite1"
         operator="in"
         in="fbSourceGraphic"
         id="feComposite1803"
         in2="flood" />
      <feGaussianBlur
         result="blur"
         stdDeviation="7.3"
         in="composite1"
         id="feGaussianBlur1805" />
      <feOffset
         result="offset"
         dy="10.4"
         dx="6.51042"
         id="feOffset1807" />
      <feComposite
         result="composite2"
         operator="over"
         in="fbSourceGraphic"
         id="feComposite1809"
         in2="offset" />
    </filter>
  </defs>
  <metadata
     id="metadata5">
    <rdf:RDF>
      <cc:Work
         rdf:about="">
        <dc:format>image/svg+xml</dc:format>
        <dc:type
           rdf:resource="http://purl.org/dc/dcmitype/StillImage" />
        <dc:title></dc:title>
      </cc:Work>
    </rdf:RDF>
  </metadata>
  <g
     transform="translate(0,103)"
     id="layer1">
    <path
       transform="matrix(-1,0,0,1,372.04745,0)"
       d="m 284.41551,-50.792169 c -1.2305,1.308081 -1.98732,2.94517 -3.12125,4.319146 -1.63917,2.187397 -2.83642,4.658039 -4.41128,6.89734 -1.634,2.786624 -4.02054,4.975506 -6.00601,7.495241 -3.18043,3.592402 -6.17839,7.333837 -9.22039,11.041692 -0.50868,0.684377 -0.99473,1.386163 -1.52602,2.05313 -0.67414,0.846291 -1.41347,1.639215 -2.08869,2.484641 -2.66907,3.34186 -5.10475,6.8468793 -7.83373,10.1441538 -3.58212,4.2818949 -6.99211,8.7380258 -10.83967,12.7873732 -3.30087,3.4188376 -6.98035,6.414336 -10.50321,9.593998 -5.63249,4.816917 -11.24729,9.667912 -16.71208,14.677253 -4.19215,3.924805 -8.59029,7.627072 -13.17529,11.083641 -3.39704,2.646651 -6.6607,5.477762 -10.14499,8.012385 -1.68393,1.224958 -3.42697,2.366513 -5.13943,3.551235 -5.00093,3.345304 -9.74701,7.042327 -14.85387,10.230318 -3.64726,2.454714 -7.47064,4.619466 -11.28548,6.796646 -2.80399,1.741567 -5.61395,3.469896 -8.37028,5.286621 -2.83971,1.672783 -5.60111,3.463298 -8.37604,5.241324 -2.48666,1.671455 -5.28478,2.784171 -7.77018,4.44804 -1.6746,0.996447 -3.10756,2.314072 -4.69307,3.439999 -1.44822,1.016706 -2.84308,2.085417 -4.26944,3.133799 -1.46311,1.04921 -2.67042,2.404298 -4.17694,3.393691 -1.1608,0.626372 -1.80183,1.838407 -2.75715,2.699957 -0.10493,0.08632 -0.23405,0.149685 -0.3148,0.258966 -0.0896,0.12128 -0.0917,0.293505 -0.18243,0.41397 -0.0384,0.05096 0.009,-0.127299 0.0144,-0.190836 0.0401,-0.445318 0.0841,-0.890292 0.12309,-1.335707 0.12291,-1.402789 -0.13822,-0.891963 0.37512,-1.622512 0.14391,-0.04369 0.28361,-0.157081 0.43174,-0.13107 0.37981,0.06669 0.95497,0.636733 1.23461,0.800373 0.21407,0.125267 0.46662,0.173183 0.68461,0.291497 1.77894,0.965512 -0.3177,0.03842 1.46123,0.780137 1.10565,0.725985 2.30868,1.353537 3.29189,2.252725 1.94216,1.776202 -0.15411,0.24394 2.04757,1.730632 0.40936,0.31608 0.81768,0.63351 1.22807,0.94825 1.10986,0.85119 1.52573,1.12023 2.56921,2.07168 1.18164,1.07741 1.71633,1.78217 3.02175,2.76015 0.55475,0.4156 1.16758,0.74742 1.75137,1.12113 4.32943,2.45987 8.53445,5.1258 12.51906,8.11219 4.08996,2.42914 7.3634,5.90108 10.98158,8.91989 0.77645,0.64783 1.60546,1.2299 2.4082,1.84485 3.77368,3.58053 7.89525,6.77344 12.02611,9.92623 1.02895,0.78532 2.10028,1.51769 3.0893,2.35274 1.12958,0.95374 2.17298,2.00511 3.25947,3.00765 7.74502,6.12617 15.50663,12.22246 22.93222,18.7369 1.28704,1.13228 2.54295,2.30103 3.86114,3.3969 1.26016,1.04765 2.59873,1.99787 3.87075,3.03107 2.60786,2.11826 5.19292,4.26559 7.73264,6.46507 9.78463,8.47378 -1.954,-1.30935 8.04617,6.93891 1.33172,1.10088 2.62981,2.24377 3.99517,3.30266 1.22132,0.94715 2.52151,1.7885 3.76066,2.71222 4.0292,3.00355 7.99389,6.16444 11.75943,9.48936 5.43998,4.1887 10.86056,8.39806 16.51199,12.29897 0.80545,0.51398 1.6232,1.00917 2.41634,1.54196 8.61894,5.7898 -3.87637,-2.4199 4.39585,3.02845 2.02935,1.33657 4.09566,2.60144 6.10357,3.9706 2.89815,2.08286 6.00281,3.83278 8.72208,6.15344 1.12957,0.5469 1.7438,1.57819 2.53731,2.47748 0.61685,0.69906 1.20142,1.35152 1.76348,2.10413 0.38962,0.65508 0.82015,1.34747 1.31535,1.92947 0.11321,0.13306 0.29866,0.18939 0.41603,0.3188 0.80465,0.88712 -0.0375,0.31308 0.77652,0.79536 0.88956,0.90083 1.55763,1.75414 2.87372,1.99941 0,0 -36.84861,3.90876 -36.84861,3.90876 v 0 c -1.09416,-0.99845 -2.07822,-2.0905 -3.10653,-3.14396 -0.72483,-1.14961 -1.51826,-2.26092 -2.27713,-3.38828 -1.12515,-1.417 -2.32282,-2.71283 -3.73403,-3.85326 -2.45819,-2.08772 -5.14439,-3.88408 -7.67264,-5.88476 -4.07413,-2.84866 -8.18165,-5.65184 -12.08975,-8.72868 -5.2862,-4.16436 -10.63722,-8.24582 -15.79802,-12.56631 -6.24071,-4.90497 -11.9237,-10.42662 -17.87705,-15.6647 -7.81904,-6.70452 -16.02044,-12.93874 -23.68085,-19.82756 -7.69604,-6.28832 -15.38639,-12.591 -23.30985,-18.59228 -1.40557,-0.96538 -2.8405,-1.88933 -4.2167,-2.89614 -5.39178,-3.94454 -10.19107,-8.70147 -15.90863,-12.20976 -4.50316,-3.56659 -8.85795,-7.33067 -13.61255,-10.56429 -2.32009,-1.51002 -4.68173,-2.93494 -7.07872,-4.32022 -0.59449,-0.34356 -3.82194,-2.13212 -4.43997,-2.52029 -0.60588,-0.38054 -1.1747,-0.81711 -1.762055,-1.22566 -3.032537,-2.36761 -6.088504,-4.70245 -9.313806,-6.80577 -1.825832,-1.32102 -3.802994,-2.42911 -5.938528,-3.17387 -0.671698,-0.30138 -1.486932,-0.64496 -2.229115,-0.72679 -2.918394,-0.32177 1.444728,0.38329 -1.298204,0.15015 -0.210193,-0.0179 -0.400042,-0.13404 -0.600062,-0.20106 -0.175877,-0.17326 -0.422101,-0.29657 -0.52763,-0.51976 -0.489643,-1.035583 -0.799867,-2.789842 -0.232034,-3.857872 0.0745,-0.140118 0.227349,-0.221462 0.341022,-0.332195 0.121885,-0.250704 0.243773,-0.501407 0.365662,-0.752113 1.378074,-1.826908 -0.409763,0.417314 0.919726,-0.919165 0.187822,-0.188809 0.301006,-0.44241 0.485227,-0.63473 0.152792,-0.159507 0.368501,-0.250545 0.518276,-0.412888 0.4108,-0.445262 0.641837,-1.037632 1.094836,-1.450681 1.357376,-1.138309 3.0759,-1.820675 4.209904,-3.256542 0.653701,-0.583017 1.355288,-1.045575 2.032529,-1.588759 0.772753,-0.619795 1.445027,-1.335956 2.40669,-1.692029 1.651614,-1.281301 3.3338,-2.527983 5.035444,-3.73189 1.302049,-0.733192 2.504585,-1.67526 3.842418,-2.338692 1.40024,-0.694377 2.94616,-1.127122 4.22682,-2.070549 1.42504,-0.843458 2.9039,-1.64872 4.29067,-2.552139 2.57183,-1.675432 0.22126,-0.341424 2.67513,-1.89534 0.39856,-0.252392 0.81956,-0.467482 1.22934,-0.701223 2.97764,-1.960552 6.07965,-3.705169 9.24108,-5.35164 3.77553,-2.373569 7.68588,-4.525465 11.60452,-6.651955 4.12348,-2.727193 0.18814,-0.252677 4.66409,-2.680899 3.82193,-2.073418 7.40746,-4.595318 10.74885,-7.369164 5.17489,-3.613875 10.62827,-6.914669 15.23163,-11.274258 4.33003,-3.976357 9.06512,-7.455289 13.73839,-11.012202 2.13169,-1.648203 3.93917,-2.978846 5.93879,-4.803902 0.94708,-0.864404 1.80856,-1.818584 2.7362,-2.70383 2.40786,-2.297827 4.93604,-4.481661 7.00028,-7.115752 1.81085,-1.672018 3.46887,-3.4721774 5.24197,-5.175877 1.60083,-1.538179 3.4638,-2.7833108 5.05919,-4.3286627 4.23366,-3.77289474 7.97631,-8.0086305 11.58333,-12.3793116 3.95408,-4.6083297 7.57332,-9.4520357 10.81797,-14.5881767 2.75529,-3.746791 5.78901,-7.28335 8.40862,-11.131497 1.09451,-1.369431 2.05891,-2.827907 3.13952,-4.204163 1.07955,-1.37491 0.65414,-0.574511 1.62249,-1.956758 0.25695,-0.366776 0.47898,-0.756809 0.71848,-1.135213 1.47313,-2.152624 3.2489,-4.160854 3.9485,-6.738393 0.15497,-0.314883 0.27539,-0.649274 0.46493,-0.944647 0.28219,-0.439775 0.76576,-0.726945 1.01491,-1.194684 0.43756,-0.69352 0.67517,-1.522989 1.23484,-2.144842 0,0 37.18309,2.011405 37.18309,2.011405 z"
       id="path845"
       style="fill:#000080;stroke-width:0.26458332;filter:url(#filter969)" />
  </g>
</svg>
